<svg width="18" height="18" viewBox="0 0 18 18" fill="none" xmlns="http://www.w3.org/2000/svg">
<path d="M15.7103 6.22762C15.7027 5.65959 15.5964 5.0972 15.396 4.56562C15.2223 4.11723 14.9569 3.71002 14.6169 3.36999C14.2769 3.02997 13.8697 2.76461 13.4213 2.59087C12.8965 2.39389 12.3422 2.28738 11.7818 2.27587C11.0603 2.24362 10.8315 2.23462 9.00002 2.23462C7.16852 2.23462 6.93377 2.23462 6.21752 2.27587C5.65739 2.28746 5.10328 2.39397 4.57877 2.59087C4.13032 2.76449 3.72304 3.0298 3.383 3.36984C3.04296 3.70988 2.77764 4.11716 2.60402 4.56562C2.40665 5.08997 2.30036 5.6442 2.28977 6.20437C2.25752 6.92662 2.24777 7.15537 2.24777 8.98687C2.24777 10.8184 2.24777 11.0524 2.28977 11.7694C2.30102 12.3304 2.40677 12.8839 2.60402 13.4096C2.77793 13.8579 3.04344 14.2651 3.3836 14.6049C3.72375 14.9448 4.13107 15.2101 4.57952 15.3836C5.1026 15.5885 5.6568 15.7027 6.21827 15.7211C6.94052 15.7534 7.16927 15.7631 9.00077 15.7631C10.8323 15.7631 11.067 15.7631 11.7833 15.7211C12.3436 15.7101 12.898 15.6038 13.4228 15.4069C13.871 15.2329 14.2782 14.9675 14.6182 14.6275C14.9582 14.2875 15.2236 13.8804 15.3975 13.4321C15.5948 12.9071 15.7005 12.3536 15.7118 11.7919C15.744 11.0704 15.7538 10.8416 15.7538 9.00937C15.7523 7.17787 15.7523 6.94537 15.7103 6.22762ZM8.99552 12.4504C7.08002 12.4504 5.52827 10.8986 5.52827 8.98312C5.52827 7.06762 7.08002 5.51587 8.99552 5.51587C9.9151 5.51587 10.797 5.88117 11.4472 6.5314C12.0975 7.18164 12.4628 8.06355 12.4628 8.98312C12.4628 9.90269 12.0975 10.7846 11.4472 11.4348C10.797 12.0851 9.9151 12.4504 8.99552 12.4504ZM12.6008 6.19612C12.4946 6.19622 12.3894 6.17537 12.2913 6.13478C12.1931 6.09418 12.104 6.03463 12.0289 5.95954C11.9538 5.88444 11.8942 5.79527 11.8536 5.69714C11.813 5.599 11.7922 5.49382 11.7923 5.38762C11.7923 5.28149 11.8132 5.17641 11.8538 5.07836C11.8944 4.98032 11.9539 4.89123 12.029 4.81619C12.104 4.74115 12.1931 4.68162 12.2911 4.64101C12.3892 4.6004 12.4943 4.57949 12.6004 4.57949C12.7065 4.57949 12.8116 4.6004 12.9097 4.64101C13.0077 4.68162 13.0968 4.74115 13.1718 4.81619C13.2469 4.89123 13.3064 4.98032 13.347 5.07836C13.3876 5.17641 13.4085 5.28149 13.4085 5.38762C13.4085 5.83462 13.047 6.19612 12.6008 6.19612Z" fill="white"/>
<path d="M8.99731 11.2364C10.2412 11.2364 11.2496 10.2281 11.2496 8.98418C11.2496 7.7403 10.2412 6.73193 8.99731 6.73193C7.75342 6.73193 6.74506 7.7403 6.74506 8.98418C6.74506 10.2281 7.75342 11.2364 8.99731 11.2364Z" fill="white"/>
</svg>
