<svg width="16" height="14" viewBox="0 0 16 14" fill="none" xmlns="http://www.w3.org/2000/svg">
<path d="M15.762 2.29122C15.2053 2.53789 14.6073 2.70456 13.9787 2.77989C14.6273 2.39175 15.1126 1.78087 15.344 1.06122C14.7346 1.42321 14.0676 1.67802 13.372 1.81456C12.9043 1.31513 12.2847 0.984106 11.6095 0.872871C10.9344 0.761636 10.2414 0.876416 9.63816 1.19939C9.03492 1.52236 8.55518 2.03546 8.27343 2.65902C7.99169 3.28259 7.92369 3.98172 8.08 4.64789C6.84512 4.58589 5.63708 4.26492 4.53428 3.70583C3.43148 3.14673 2.45856 2.362 1.67866 1.40256C1.412 1.86256 1.25866 2.39589 1.25866 2.96389C1.25837 3.47522 1.38429 3.97872 1.62525 4.42971C1.86621 4.8807 2.21477 5.26525 2.64 5.54922C2.14685 5.53353 1.66458 5.40028 1.23333 5.16055V5.20055C1.23328 5.91772 1.48135 6.61281 1.93545 7.16789C2.38955 7.72296 3.02171 8.10384 3.72466 8.24589C3.26719 8.3697 2.78756 8.38794 2.322 8.29922C2.52033 8.9163 2.90666 9.45591 3.42691 9.84251C3.94716 10.2291 4.57528 10.4433 5.22333 10.4552C4.12322 11.3188 2.76459 11.7873 1.366 11.7852C1.11825 11.7853 0.870715 11.7708 0.624664 11.7419C2.04432 12.6547 3.69689 13.1391 5.38466 13.1372C11.098 13.1372 14.2213 8.40522 14.2213 4.30122C14.2213 4.16789 14.218 4.03322 14.212 3.89989C14.8195 3.46054 15.3439 2.91649 15.7607 2.29322L15.762 2.29122Z" fill="white"/>
</svg>
