<svg width="17" height="13" viewBox="0 0 17 13" fill="none" xmlns="http://www.w3.org/2000/svg">
<path d="M16.6441 2.60645C16.5478 2.26307 16.3603 1.9522 16.1015 1.70687C15.8354 1.454 15.5092 1.27311 15.1538 1.18129C13.8235 0.830661 8.49402 0.830661 8.49402 0.830661C6.27221 0.805382 4.05095 0.916564 1.84277 1.16358C1.48732 1.26219 1.16175 1.44711 0.89502 1.70191C0.632937 1.95408 0.443104 2.26504 0.343937 2.60574C0.10572 3.88906 -0.0100227 5.19211 -0.00172958 6.49733C-0.0102296 7.80137 0.105229 9.10399 0.343937 10.3889C0.440979 10.7282 0.630104 11.0377 0.892895 11.2878C1.15569 11.5378 1.48294 11.7185 1.84277 11.8141C3.19073 12.164 8.49402 12.164 8.49402 12.164C10.7187 12.1893 12.9427 12.0781 15.1538 11.8311C15.5092 11.7393 15.8354 11.5584 16.1015 11.3055C16.3602 11.0602 16.5475 10.7493 16.6434 10.4059C16.8878 9.12309 17.0067 7.8195 16.9983 6.51362C17.0167 5.20221 16.898 3.89248 16.6441 2.60574V2.60645ZM6.79969 8.92266V4.0727L11.2339 6.49804L6.79969 8.92266Z" fill="white"/>
</svg>
